<svg width="111" height="54" viewBox="0 0 111 54" version="1.1" xmlns="http://www.w3.org/2000/svg" xmlns:xlink="http://www.w3.org/1999/xlink">
<g id="Canvas" transform="translate(-195 -1314)">
<g id="Group">
<g id="hotelsng_logo copy">
<g id="Layer x0020 1">
<g id="Vector">
<use xlink:href="#path0_fill" transform="translate(195 1314)" fill="#00AEFF"/>
</g>
</g>
</g>
<g id="Business Travel">
<use xlink:href="#path1_fill" transform="translate(200 1353)" fill="#FFFFFF"/>
</g>
</g>
</g>
<defs>
<path id="path0_fill" d="M 14.4903 30.267L 14.4903 20.3034C 14.4903 16.5262 13.5488 13.5013 9.27909 13.5013C 7.51448 13.5013 6.26997 13.8606 4.77372 14.8515L 4.77372 0.598311C 4.77372 0.27381 4.50488 3.63968e-07 4.18568 3.63968e-07L 0.588525 3.63968e-07C 0.268843 3.63968e-07 5.96692e-08 0.27381 5.96692e-08 0.598311L 5.96692e-08 30.2665C 5.96692e-08 30.591 0.302575 30.8986 0.621768 30.8986L 4.18568 30.8986C 4.50488 30.8986 4.77372 30.591 4.77372 30.2665L 4.77372 18.4752C 5.78214 17.928 6.69034 17.5181 7.54772 17.5181C 9.34654 17.5181 9.71657 18.2013 9.71657 20.3034L 9.71657 30.267C 9.71657 30.5915 9.98542 30.8991 10.3051 30.8991L 13.8685 30.8991C 14.2048 30.8996 14.4903 30.592 14.4903 30.267ZM 111 16.2365L 111 14.5275C 111 14.1006 110.681 13.7413 110.277 13.7413L 102.931 13.7413C 97.787 13.7413 95.5849 16.0143 95.5849 19.398L 95.5849 19.637C 95.5849 20.8336 95.9882 22.3716 96.9296 23.209C 96.19 23.8068 95.6352 24.6446 95.6352 25.7553C 95.6352 26.7293 96.0727 27.9254 97.132 28.5406C 95.8708 29.5151 95.3669 30.6601 95.3669 31.8905L 95.3669 32.1295C 95.3669 35.2736 97.9556 37 102.848 37C 108.042 37 110.563 35.4108 110.563 32.1295L 110.563 31.8905C 110.563 29.0192 108.799 28.1982 103.671 27.0712L 100.342 26.3188C 99.6366 26.1648 99.4685 25.9595 99.4685 25.481C 99.4685 25.2077 99.5526 25.0024 99.8717 24.7977C 100.46 25.0367 101.552 25.242 102.931 25.242C 107.538 25.242 110.211 23.5335 110.211 19.6365L 110.211 19.3975C 110.211 18.6804 109.925 17.7228 109.571 17.193L 110.479 16.8855C 110.832 16.7657 111 16.6464 111 16.2365ZM 105.553 19.637C 105.553 20.936 104.998 21.739 102.931 21.739C 100.695 21.739 100.258 20.6627 100.258 19.637L 100.258 19.398C 100.258 18.1676 100.846 17.2447 102.931 17.2447C 105.032 17.2447 105.553 18.1676 105.553 19.398L 105.553 19.637ZM 105.705 32.13C 105.705 33.0185 105.268 33.6511 102.847 33.6511C 100.577 33.6511 99.9045 33.1388 99.9045 32.13L 99.9045 31.891C 99.9045 30.831 100.14 30.3525 100.493 29.857L 102.678 30.3356C 105.318 30.9334 105.704 31.3096 105.704 31.891L 105.704 32.13L 105.705 32.13ZM 94.4919 30.267L 94.4919 20.3034C 94.4919 16.5262 93.5505 13.5013 89.2807 13.5013C 87.3978 13.5013 86.1034 13.8944 84.4894 15.0567L 84.4894 14.3386C 84.4894 14.0141 84.2205 13.7408 83.9013 13.7408L 80.5897 13.7408C 80.2705 13.7408 80.0011 14.0141 80.0011 14.3386L 80.0011 30.267C 80.0011 30.5915 80.3037 30.8991 80.6229 30.8991L 84.1868 30.8991C 84.5065 30.8991 84.7753 30.5915 84.7753 30.267L 84.7753 18.4752C 85.7837 17.928 86.692 17.5181 87.5493 17.5181C 89.3482 17.5181 89.7182 18.2013 89.7182 20.3034L 89.7182 30.267C 89.7182 30.5915 89.987 30.8991 90.3228 30.8991L 93.8701 30.8991C 94.206 30.8996 94.4919 30.592 94.4919 30.267ZM 78.7742 30.3013L 78.7742 26.5246C 78.7742 26.2001 78.5215 25.96 78.1857 25.96L 74.7396 25.96C 74.4204 25.96 74.1344 26.1996 74.1344 26.5246L 74.1344 30.3013C 74.1344 30.6263 74.4204 30.8996 74.7396 30.8996L 78.1857 30.8996C 78.5215 30.8996 78.7742 30.6263 78.7742 30.3013ZM 73.4281 26.1315C 73.4281 24.5254 72.907 22.9694 70.4527 21.5343L 66.8047 19.3975C 66.2162 19.0387 65.897 18.7997 65.897 18.3549C 65.897 17.6716 66.3003 17.4833 67.4602 17.4833C 68.9569 17.4833 71.4948 17.7571 72.3356 17.8763C 72.3688 17.8763 72.4031 17.8763 72.4363 17.8763C 72.7223 17.8763 72.9241 17.6716 72.9241 17.3123L 72.9241 14.8858C 72.9241 14.5265 72.7223 14.2875 72.3688 14.1851C 70.8726 13.8089 69.4609 13.5013 67.1244 13.5013C 63.0565 13.5013 61.0891 15.1248 61.0891 18.1497C 61.0891 20.0808 62.0642 21.6183 63.7115 22.5759L 67.5443 24.8146C 68.3684 25.2931 68.6373 25.6345 68.6373 26.0793C 68.6373 26.8486 68.301 27.2416 66.8888 27.2416C 65.9473 27.2416 63.4764 27.0364 61.879 26.8312C 61.8628 26.8312 61.7954 26.8312 61.7617 26.8312C 61.4087 26.8312 61.2069 27.0881 61.2069 27.3957L 61.2069 29.8222C 61.2069 30.1815 61.4087 30.4205 61.7617 30.506C 63.2745 30.9329 65.5103 31.1724 67.1244 31.1724C 71.4279 31.1729 73.4281 28.9511 73.4281 26.1315ZM 60.3324 36.1974L 60.3324 7.16138C 60.3324 6.83688 60.0978 6.56306 59.7781 6.56306L 56.1809 6.56306C 55.8612 6.56306 55.5587 6.83688 55.5587 7.16138L 55.5587 36.1974C 55.5587 36.5219 55.8612 36.8127 56.1809 36.8127L 59.7781 36.8127C 60.0978 36.8127 60.3324 36.5219 60.3324 36.1974ZM 54.7179 23.1061L 54.7179 21.3802C 54.7179 16.8512 52.2807 13.5018 47.439 13.5018C 42.7655 13.5018 39.992 16.5609 39.992 21.3802L 39.992 23.4649C 39.992 29.2582 43.8248 31.1724 47.3887 31.1724C 49.9442 31.1724 51.5411 30.9334 53.424 30.4548C 53.928 30.3356 54.0458 30.1129 54.0458 29.6349L 54.0458 27.3619C 54.0458 27.0374 53.8107 26.8833 53.491 26.8833C 53.4573 26.8833 53.4235 26.8833 53.3898 26.8833C 52.2132 27.0031 49.5913 27.1571 47.7416 27.1571C 45.4217 27.1571 44.7159 25.6017 44.7159 23.8928L 44.7159 23.8247L 54.0961 23.8247C 54.4828 23.8242 54.7179 23.5678 54.7179 23.1061ZM 50.062 20.8336L 44.7159 20.8336L 44.7159 20.7139C 44.7159 18.5263 45.7917 17.3983 47.4224 17.3983C 49.0697 17.3983 50.0615 18.509 50.0615 20.7139L 50.0615 20.8336L 50.062 20.8336ZM 40.0086 30.3356L 40.0086 27.994C 40.0086 27.6695 39.7735 27.4817 39.3869 27.4817L 37.9415 27.4817C 37.0675 27.4817 36.9663 27.2764 36.9663 26.0803L 36.9663 17.3645L 39.3869 17.3645C 39.7065 17.3645 39.9754 17.0907 39.9754 16.7662L 39.9754 14.3391C 39.9754 14.0146 39.7065 13.7413 39.3869 13.7413L 36.9663 13.7413L 36.9663 10.5629C 36.9663 10.2722 36.7312 10.0675 36.4457 10.0675C 36.412 10.0675 36.3782 10.0675 36.3611 10.0675L 32.764 10.6822C 32.4448 10.7508 32.1759 10.956 32.1759 11.2805L 32.1759 13.7413L 29.8223 13.7413C 29.486 13.7413 29.2005 14.0489 29.2005 14.3734L 29.2005 16.3557C 29.2005 16.6802 29.4865 16.9197 29.8223 16.9709L 32.1759 17.364L 32.1759 26.046C 32.1759 30.3013 33.8736 31.1724 37.1178 31.1724C 37.9752 31.1724 38.5637 31.07 39.4543 30.9334C 39.8072 30.8653 40.0086 30.6263 40.0086 30.3356ZM 30.0569 23.3799L 30.0569 21.2953C 30.0569 16.5267 27.4682 13.5018 22.694 13.5018C 17.9369 13.5018 15.3139 16.5267 15.3139 21.2953L 15.3139 23.3799C 15.3139 28.148 17.9364 31.1729 22.694 31.1729C 27.4682 31.1729 30.0569 28.148 30.0569 23.3799ZM 25.3165 23.3799C 25.3165 25.807 24.4092 27.0717 22.6945 27.0717C 20.9964 27.0717 20.0554 25.807 20.0554 23.3799L 20.0554 21.2953C 20.0554 18.8682 20.9968 17.6378 22.6945 17.6378C 24.4092 17.6378 25.3165 18.8687 25.3165 21.2953L 25.3165 23.3799Z"/>
<path id="path1_fill" d="M 4.914 12.53C 5.264 12.53 5.558 12.488 5.796 12.404C 6.034 12.32 6.223 12.208 6.363 12.068C 6.50767 11.928 6.61033 11.7647 6.671 11.578C 6.73633 11.3913 6.769 11.193 6.769 10.983C 6.769 10.7637 6.734 10.5677 6.664 10.395C 6.594 10.2177 6.48433 10.0683 6.335 9.947C 6.18567 9.821 5.992 9.72533 5.754 9.66C 5.52067 9.59467 5.23833 9.562 4.907 9.562L 3.01 9.562L 3.01 12.53L 4.914 12.53ZM 3.01 5.334L 3.01 8.26L 4.508 8.26C 5.152 8.26 5.63733 8.14333 5.964 7.91C 6.29533 7.67667 6.461 7.30567 6.461 6.797C 6.461 6.26967 6.31167 5.894 6.013 5.67C 5.71433 5.446 5.24767 5.334 4.613 5.334L 3.01 5.334ZM 4.613 3.878C 5.27567 3.878 5.84267 3.941 6.314 4.067C 6.78533 4.193 7.17033 4.37267 7.469 4.606C 7.77233 4.83933 7.994 5.12167 8.134 5.453C 8.274 5.78433 8.344 6.15767 8.344 6.573C 8.344 6.811 8.309 7.03967 8.239 7.259C 8.169 7.47367 8.05933 7.67667 7.91 7.868C 7.76533 8.05467 7.57867 8.225 7.35 8.379C 7.126 8.533 6.85767 8.66367 6.545 8.771C 7.93567 9.08367 8.631 9.835 8.631 11.025C 8.631 11.4543 8.54933 11.851 8.386 12.215C 8.22267 12.579 7.98467 12.894 7.672 13.16C 7.35933 13.4213 6.97433 13.6267 6.517 13.776C 6.05967 13.9253 5.537 14 4.949 14L 1.127 14L 1.127 3.878L 4.613 3.878ZM 16.1338 6.818L 16.1338 14L 15.0768 14C 14.8481 14 14.7035 13.895 14.6428 13.685L 14.5238 13.111C 14.2298 13.4097 13.9055 13.6523 13.5508 13.839C 13.1961 14.021 12.7785 14.112 12.2978 14.112C 11.9058 14.112 11.5581 14.0467 11.2548 13.916C 10.9561 13.7807 10.7041 13.5917 10.4988 13.349C 10.2935 13.1063 10.1371 12.8193 10.0298 12.488C 9.92713 12.152 9.8758 11.7833 9.8758 11.382L 9.8758 6.818L 11.6048 6.818L 11.6048 11.382C 11.6048 11.8207 11.7051 12.1613 11.9058 12.404C 12.1111 12.642 12.4168 12.761 12.8228 12.761C 13.1215 12.761 13.4015 12.6957 13.6628 12.565C 13.9241 12.4297 14.1715 12.2453 14.4048 12.012L 14.4048 6.818L 16.1338 6.818ZM 22.2301 8.218C 22.1835 8.29267 22.1345 8.34633 22.0831 8.379C 22.0318 8.407 21.9665 8.421 21.8871 8.421C 21.8031 8.421 21.7121 8.39767 21.6141 8.351C 21.5208 8.30433 21.4111 8.253 21.2851 8.197C 21.1591 8.13633 21.0145 8.08267 20.8511 8.036C 20.6925 7.98933 20.5035 7.966 20.2841 7.966C 19.9435 7.966 19.6751 8.03833 19.4791 8.183C 19.2878 8.32767 19.1921 8.51667 19.1921 8.75C 19.1921 8.904 19.2411 9.03467 19.3391 9.142C 19.4418 9.24467 19.5748 9.33567 19.7381 9.415C 19.9061 9.49433 20.0951 9.56667 20.3051 9.632C 20.5151 9.69267 20.7275 9.76033 20.9421 9.835C 21.1615 9.90967 21.3761 9.996 21.5861 10.094C 21.7961 10.1873 21.9828 10.3087 22.1461 10.458C 22.3141 10.6027 22.4471 10.7777 22.5451 10.983C 22.6478 11.1883 22.6991 11.4357 22.6991 11.725C 22.6991 12.0703 22.6361 12.39 22.5101 12.684C 22.3888 12.9733 22.2068 13.2253 21.9641 13.44C 21.7215 13.65 21.4205 13.8157 21.0611 13.937C 20.7065 14.0537 20.2958 14.112 19.8291 14.112C 19.5818 14.112 19.3391 14.0887 19.1011 14.042C 18.8678 14 18.6415 13.9393 18.4221 13.86C 18.2075 13.7807 18.0068 13.6873 17.8201 13.58C 17.6381 13.4727 17.4771 13.356 17.3371 13.23L 17.7361 12.572C 17.7875 12.4927 17.8481 12.432 17.9181 12.39C 17.9881 12.348 18.0768 12.327 18.1841 12.327C 18.2915 12.327 18.3918 12.3573 18.4851 12.418C 18.5831 12.4787 18.6951 12.544 18.8211 12.614C 18.9471 12.684 19.0941 12.7493 19.2621 12.81C 19.4348 12.8707 19.6518 12.901 19.9131 12.901C 20.1185 12.901 20.2935 12.8777 20.4381 12.831C 20.5875 12.7797 20.7088 12.7143 20.8021 12.635C 20.9001 12.5557 20.9701 12.4647 21.0121 12.362C 21.0588 12.2547 21.0821 12.145 21.0821 12.033C 21.0821 11.865 21.0308 11.7273 20.9281 11.62C 20.8301 11.5127 20.6971 11.4193 20.5291 11.34C 20.3658 11.2607 20.1768 11.1907 19.9621 11.13C 19.7521 11.0647 19.5351 10.9947 19.3111 10.92C 19.0918 10.8453 18.8748 10.759 18.6601 10.661C 18.4501 10.5583 18.2611 10.43 18.0931 10.276C 17.9298 10.122 17.7968 9.933 17.6941 9.709C 17.5961 9.485 17.5471 9.21433 17.5471 8.897C 17.5471 8.603 17.6055 8.323 17.7221 8.057C 17.8388 7.791 18.0091 7.56 18.2331 7.364C 18.4618 7.16333 18.7441 7.00467 19.0801 6.888C 19.4208 6.76667 19.8128 6.706 20.2561 6.706C 20.7508 6.706 21.2011 6.78767 21.6071 6.951C 22.0131 7.11433 22.3515 7.329 22.6221 7.595L 22.2301 8.218ZM 25.7925 6.818L 25.7925 14L 24.0565 14L 24.0565 6.818L 25.7925 6.818ZM 26.0305 4.725C 26.0305 4.87433 26.0002 5.01433 25.9395 5.145C 25.8788 5.27567 25.7972 5.39 25.6945 5.488C 25.5965 5.586 25.4798 5.66533 25.3445 5.726C 25.2092 5.782 25.0645 5.81 24.9105 5.81C 24.7612 5.81 24.6188 5.782 24.4835 5.726C 24.3528 5.66533 24.2385 5.586 24.1405 5.488C 24.0425 5.39 23.9632 5.27567 23.9025 5.145C 23.8465 5.01433 23.8185 4.87433 23.8185 4.725C 23.8185 4.571 23.8465 4.42633 23.9025 4.291C 23.9632 4.15567 24.0425 4.039 24.1405 3.941C 24.2385 3.843 24.3528 3.766 24.4835 3.71C 24.6188 3.64933 24.7612 3.619 24.9105 3.619C 25.0645 3.619 25.2092 3.64933 25.3445 3.71C 25.4798 3.766 25.5965 3.843 25.6945 3.941C 25.7972 4.039 25.8788 4.15567 25.9395 4.291C 26.0002 4.42633 26.0305 4.571 26.0305 4.725ZM 29.1722 7.7C 29.3168 7.55533 29.4685 7.42233 29.6272 7.301C 29.7905 7.175 29.9608 7.07 30.1382 6.986C 30.3202 6.89733 30.5138 6.82967 30.7192 6.783C 30.9245 6.73167 31.1485 6.706 31.3912 6.706C 31.7832 6.706 32.1308 6.77367 32.4342 6.909C 32.7375 7.03967 32.9895 7.22633 33.1902 7.469C 33.3955 7.707 33.5495 7.994 33.6522 8.33C 33.7595 8.66133 33.8132 9.02767 33.8132 9.429L 33.8132 14L 32.0842 14L 32.0842 9.429C 32.0842 8.99033 31.9838 8.652 31.7832 8.414C 31.5825 8.17133 31.2768 8.05 30.8662 8.05C 30.5675 8.05 30.2875 8.11767 30.0262 8.253C 29.7648 8.38833 29.5175 8.57267 29.2842 8.806L 29.2842 14L 27.5552 14L 27.5552 6.818L 28.6122 6.818C 28.8362 6.818 28.9832 6.923 29.0532 7.133L 29.1722 7.7ZM 40.0845 9.583C 40.0845 9.359 40.0518 9.149 39.9865 8.953C 39.9258 8.75233 39.8325 8.57733 39.7065 8.428C 39.5805 8.27867 39.4195 8.162 39.2235 8.078C 39.0322 7.98933 38.8082 7.945 38.5515 7.945C 38.0522 7.945 37.6578 8.08733 37.3685 8.372C 37.0838 8.65667 36.9018 9.06033 36.8225 9.583L 40.0845 9.583ZM 36.7875 10.626C 36.8155 10.9947 36.8808 11.3143 36.9835 11.585C 37.0862 11.851 37.2215 12.0727 37.3895 12.25C 37.5575 12.4227 37.7558 12.5533 37.9845 12.642C 38.2178 12.726 38.4745 12.768 38.7545 12.768C 39.0345 12.768 39.2748 12.7353 39.4755 12.67C 39.6808 12.6047 39.8582 12.5323 40.0075 12.453C 40.1615 12.3737 40.2945 12.3013 40.4065 12.236C 40.5232 12.1707 40.6352 12.138 40.7425 12.138C 40.8872 12.138 40.9945 12.1917 41.0645 12.299L 41.5615 12.929C 41.3702 13.153 41.1555 13.342 40.9175 13.496C 40.6795 13.6453 40.4298 13.7667 40.1685 13.86C 39.9118 13.9487 39.6482 14.0117 39.3775 14.049C 39.1115 14.0863 38.8525 14.105 38.6005 14.105C 38.1012 14.105 37.6368 14.0233 37.2075 13.86C 36.7782 13.692 36.4048 13.447 36.0875 13.125C 35.7702 12.7983 35.5205 12.397 35.3385 11.921C 35.1565 11.4403 35.0655 10.885 35.0655 10.255C 35.0655 9.765 35.1448 9.30533 35.3035 8.876C 35.4622 8.442 35.6885 8.06633 35.9825 7.749C 36.2812 7.427 36.6428 7.17267 37.0675 6.986C 37.4968 6.79933 37.9798 6.706 38.5165 6.706C 38.9692 6.706 39.3868 6.77833 39.7695 6.923C 40.1522 7.06767 40.4812 7.28 40.7565 7.56C 41.0318 7.83533 41.2465 8.176 41.4005 8.582C 41.5592 8.98333 41.6385 9.443 41.6385 9.961C 41.6385 10.2223 41.6105 10.3997 41.5545 10.493C 41.4985 10.5817 41.3912 10.626 41.2325 10.626L 36.7875 10.626ZM 47.318 8.218C 47.2714 8.29267 47.2224 8.34633 47.171 8.379C 47.1197 8.407 47.0544 8.421 46.975 8.421C 46.891 8.421 46.8 8.39767 46.702 8.351C 46.6087 8.30433 46.499 8.253 46.373 8.197C 46.247 8.13633 46.1024 8.08267 45.939 8.036C 45.7804 7.98933 45.5914 7.966 45.372 7.966C 45.0314 7.966 44.763 8.03833 44.567 8.183C 44.3757 8.32767 44.28 8.51667 44.28 8.75C 44.28 8.904 44.329 9.03467 44.427 9.142C 44.5297 9.24467 44.6627 9.33567 44.826 9.415C 44.994 9.49433 45.183 9.56667 45.393 9.632C 45.603 9.69267 45.8154 9.76033 46.03 9.835C 46.2494 9.90967 46.464 9.996 46.674 10.094C 46.884 10.1873 47.0707 10.3087 47.234 10.458C 47.402 10.6027 47.535 10.7777 47.633 10.983C 47.7357 11.1883 47.787 11.4357 47.787 11.725C 47.787 12.0703 47.724 12.39 47.598 12.684C 47.4767 12.9733 47.2947 13.2253 47.052 13.44C 46.8094 13.65 46.5084 13.8157 46.149 13.937C 45.7944 14.0537 45.3837 14.112 44.917 14.112C 44.6697 14.112 44.427 14.0887 44.189 14.042C 43.9557 14 43.7294 13.9393 43.51 13.86C 43.2954 13.7807 43.0947 13.6873 42.908 13.58C 42.726 13.4727 42.565 13.356 42.425 13.23L 42.824 12.572C 42.8754 12.4927 42.936 12.432 43.006 12.39C 43.076 12.348 43.1647 12.327 43.272 12.327C 43.3794 12.327 43.4797 12.3573 43.573 12.418C 43.671 12.4787 43.783 12.544 43.909 12.614C 44.035 12.684 44.182 12.7493 44.35 12.81C 44.5227 12.8707 44.7397 12.901 45.001 12.901C 45.2064 12.901 45.3814 12.8777 45.526 12.831C 45.6754 12.7797 45.7967 12.7143 45.89 12.635C 45.988 12.5557 46.058 12.4647 46.1 12.362C 46.1467 12.2547 46.17 12.145 46.17 12.033C 46.17 11.865 46.1187 11.7273 46.016 11.62C 45.918 11.5127 45.785 11.4193 45.617 11.34C 45.4537 11.2607 45.2647 11.1907 45.05 11.13C 44.84 11.0647 44.623 10.9947 44.399 10.92C 44.1797 10.8453 43.9627 10.759 43.748 10.661C 43.538 10.5583 43.349 10.43 43.181 10.276C 43.0177 10.122 42.8847 9.933 42.782 9.709C 42.684 9.485 42.635 9.21433 42.635 8.897C 42.635 8.603 42.6934 8.323 42.81 8.057C 42.9267 7.791 43.097 7.56 43.321 7.364C 43.5497 7.16333 43.832 7.00467 44.168 6.888C 44.5087 6.76667 44.9007 6.706 45.344 6.706C 45.8387 6.706 46.289 6.78767 46.695 6.951C 47.101 7.11433 47.4394 7.329 47.71 7.595L 47.318 8.218ZM 53.4704 8.218C 53.4237 8.29267 53.3747 8.34633 53.3234 8.379C 53.272 8.407 53.2067 8.421 53.1274 8.421C 53.0434 8.421 52.9524 8.39767 52.8544 8.351C 52.761 8.30433 52.6514 8.253 52.5254 8.197C 52.3994 8.13633 52.2547 8.08267 52.0914 8.036C 51.9327 7.98933 51.7437 7.966 51.5244 7.966C 51.1837 7.966 50.9154 8.03833 50.7194 8.183C 50.528 8.32767 50.4324 8.51667 50.4324 8.75C 50.4324 8.904 50.4814 9.03467 50.5794 9.142C 50.682 9.24467 50.815 9.33567 50.9784 9.415C 51.1464 9.49433 51.3354 9.56667 51.5454 9.632C 51.7554 9.69267 51.9677 9.76033 52.1824 9.835C 52.4017 9.90967 52.6164 9.996 52.8264 10.094C 53.0364 10.1873 53.223 10.3087 53.3864 10.458C 53.5544 10.6027 53.6874 10.7777 53.7854 10.983C 53.888 11.1883 53.9394 11.4357 53.9394 11.725C 53.9394 12.0703 53.8764 12.39 53.7504 12.684C 53.629 12.9733 53.447 13.2253 53.2044 13.44C 52.9617 13.65 52.6607 13.8157 52.3014 13.937C 51.9467 14.0537 51.536 14.112 51.0694 14.112C 50.822 14.112 50.5794 14.0887 50.3414 14.042C 50.108 14 49.8817 13.9393 49.6624 13.86C 49.4477 13.7807 49.247 13.6873 49.0604 13.58C 48.8784 13.4727 48.7174 13.356 48.5774 13.23L 48.9764 12.572C 49.0277 12.4927 49.0884 12.432 49.1584 12.39C 49.2284 12.348 49.317 12.327 49.4244 12.327C 49.5317 12.327 49.632 12.3573 49.7254 12.418C 49.8234 12.4787 49.9354 12.544 50.0614 12.614C 50.1874 12.684 50.3344 12.7493 50.5024 12.81C 50.675 12.8707 50.892 12.901 51.1534 12.901C 51.3587 12.901 51.5337 12.8777 51.6784 12.831C 51.8277 12.7797 51.949 12.7143 52.0424 12.635C 52.1404 12.5557 52.2104 12.4647 52.2524 12.362C 52.299 12.2547 52.3224 12.145 52.3224 12.033C 52.3224 11.865 52.271 11.7273 52.1684 11.62C 52.0704 11.5127 51.9374 11.4193 51.7694 11.34C 51.606 11.2607 51.417 11.1907 51.2024 11.13C 50.9924 11.0647 50.7754 10.9947 50.5514 10.92C 50.332 10.8453 50.115 10.759 49.9004 10.661C 49.6904 10.5583 49.5014 10.43 49.3334 10.276C 49.17 10.122 49.037 9.933 48.9344 9.709C 48.8364 9.485 48.7874 9.21433 48.7874 8.897C 48.7874 8.603 48.8457 8.323 48.9624 8.057C 49.079 7.791 49.2494 7.56 49.4734 7.364C 49.702 7.16333 49.9844 7.00467 50.3204 6.888C 50.661 6.76667 51.053 6.706 51.4964 6.706C 51.991 6.706 52.4414 6.78767 52.8474 6.951C 53.2534 7.11433 53.5917 7.329 53.8624 7.595L 53.4704 8.218ZM 65.5642 5.425L 62.5122 5.425L 62.5122 14L 60.6292 14L 60.6292 5.425L 57.5772 5.425L 57.5772 3.878L 65.5642 3.878L 65.5642 5.425ZM 66.8385 8.064C 67.0625 7.63467 67.3285 7.29867 67.6365 7.056C 67.9445 6.80867 68.3085 6.685 68.7285 6.685C 69.0598 6.685 69.3258 6.75733 69.5265 6.902L 69.4145 8.197C 69.3912 8.281 69.3562 8.34167 69.3095 8.379C 69.2675 8.41167 69.2092 8.428 69.1345 8.428C 69.0645 8.428 68.9595 8.41633 68.8195 8.393C 68.6842 8.36967 68.5512 8.358 68.4205 8.358C 68.2292 8.358 68.0588 8.386 67.9095 8.442C 67.7602 8.498 67.6248 8.57967 67.5035 8.687C 67.3868 8.78967 67.2818 8.91567 67.1885 9.065C 67.0998 9.21433 67.0158 9.38467 66.9365 9.576L 66.9365 14L 65.2075 14L 65.2075 6.818L 66.2225 6.818C 66.3998 6.818 66.5235 6.85067 66.5935 6.916C 66.6635 6.97667 66.7102 7.08867 66.7335 7.252L 66.8385 8.064ZM 74.1285 10.934C 73.6291 10.9573 73.2091 11.0017 72.8685 11.067C 72.5278 11.1277 72.2548 11.207 72.0495 11.305C 71.8441 11.403 71.6971 11.5173 71.6085 11.648C 71.5198 11.7787 71.4755 11.921 71.4755 12.075C 71.4755 12.3783 71.5641 12.5953 71.7415 12.726C 71.9235 12.8567 72.1591 12.922 72.4485 12.922C 72.8031 12.922 73.1088 12.859 73.3655 12.733C 73.6268 12.6023 73.8811 12.4063 74.1285 12.145L 74.1285 10.934ZM 70.1665 7.819C 70.9925 7.063 71.9865 6.685 73.1485 6.685C 73.5685 6.685 73.9441 6.755 74.2755 6.895C 74.6068 7.03033 74.8868 7.22167 75.1155 7.469C 75.3441 7.71167 75.5168 8.00333 75.6335 8.344C 75.7548 8.68467 75.8155 9.058 75.8155 9.464L 75.8155 14L 75.0315 14C 74.8681 14 74.7421 13.9767 74.6535 13.93C 74.5648 13.8787 74.4948 13.7783 74.4435 13.629L 74.2895 13.111C 74.1075 13.2743 73.9301 13.419 73.7575 13.545C 73.5848 13.6663 73.4051 13.769 73.2185 13.853C 73.0318 13.937 72.8311 14 72.6165 14.042C 72.4065 14.0887 72.1731 14.112 71.9165 14.112C 71.6131 14.112 71.3331 14.0723 71.0765 13.993C 70.8198 13.909 70.5981 13.7853 70.4115 13.622C 70.2248 13.4587 70.0801 13.2557 69.9775 13.013C 69.8748 12.7703 69.8235 12.488 69.8235 12.166C 69.8235 11.984 69.8538 11.8043 69.9145 11.627C 69.9751 11.445 70.0731 11.2723 70.2085 11.109C 70.3485 10.9457 70.5281 10.7917 70.7475 10.647C 70.9668 10.5023 71.2351 10.3763 71.5525 10.269C 71.8745 10.1617 72.2478 10.0753 72.6725 10.01C 73.0971 9.94 73.5825 9.898 74.1285 9.884L 74.1285 9.464C 74.1285 8.98333 74.0258 8.62867 73.8205 8.4C 73.6151 8.16667 73.3188 8.05 72.9315 8.05C 72.6515 8.05 72.4181 8.08267 72.2315 8.148C 72.0495 8.21333 71.8885 8.288 71.7485 8.372C 71.6085 8.45133 71.4801 8.52367 71.3635 8.589C 71.2515 8.65433 71.1255 8.687 70.9855 8.687C 70.8641 8.687 70.7615 8.65667 70.6775 8.596C 70.5935 8.53067 70.5258 8.456 70.4745 8.372L 70.1665 7.819ZM 83.7548 6.818L 80.9058 14L 79.3378 14L 76.4888 6.818L 77.9168 6.818C 78.0474 6.818 78.1548 6.84833 78.2388 6.909C 78.3274 6.96967 78.3858 7.04667 78.4138 7.14L 79.7998 10.976C 79.8744 11.2 79.9398 11.4193 79.9958 11.634C 80.0518 11.8487 80.1008 12.0633 80.1428 12.278C 80.1894 12.0633 80.2408 11.8487 80.2968 11.634C 80.3528 11.4193 80.4204 11.2 80.4998 10.976L 81.9138 7.14C 81.9464 7.04667 82.0048 6.96967 82.0888 6.909C 82.1728 6.84833 82.2731 6.818 82.3898 6.818L 83.7548 6.818ZM 89.0845 9.583C 89.0845 9.359 89.0518 9.149 88.9865 8.953C 88.9258 8.75233 88.8325 8.57733 88.7065 8.428C 88.5805 8.27867 88.4195 8.162 88.2235 8.078C 88.0322 7.98933 87.8082 7.945 87.5515 7.945C 87.0522 7.945 86.6578 8.08733 86.3685 8.372C 86.0838 8.65667 85.9018 9.06033 85.8225 9.583L 89.0845 9.583ZM 85.7875 10.626C 85.8155 10.9947 85.8808 11.3143 85.9835 11.585C 86.0862 11.851 86.2215 12.0727 86.3895 12.25C 86.5575 12.4227 86.7558 12.5533 86.9845 12.642C 87.2178 12.726 87.4745 12.768 87.7545 12.768C 88.0345 12.768 88.2748 12.7353 88.4755 12.67C 88.6808 12.6047 88.8582 12.5323 89.0075 12.453C 89.1615 12.3737 89.2945 12.3013 89.4065 12.236C 89.5232 12.1707 89.6352 12.138 89.7425 12.138C 89.8872 12.138 89.9945 12.1917 90.0645 12.299L 90.5615 12.929C 90.3702 13.153 90.1555 13.342 89.9175 13.496C 89.6795 13.6453 89.4298 13.7667 89.1685 13.86C 88.9118 13.9487 88.6482 14.0117 88.3775 14.049C 88.1115 14.0863 87.8525 14.105 87.6005 14.105C 87.1012 14.105 86.6368 14.0233 86.2075 13.86C 85.7782 13.692 85.4048 13.447 85.0875 13.125C 84.7702 12.7983 84.5205 12.397 84.3385 11.921C 84.1565 11.4403 84.0655 10.885 84.0655 10.255C 84.0655 9.765 84.1448 9.30533 84.3035 8.876C 84.4622 8.442 84.6885 8.06633 84.9825 7.749C 85.2812 7.427 85.6428 7.17267 86.0675 6.986C 86.4968 6.79933 86.9798 6.706 87.5165 6.706C 87.9692 6.706 88.3868 6.77833 88.7695 6.923C 89.1522 7.06767 89.4812 7.28 89.7565 7.56C 90.0318 7.83533 90.2465 8.176 90.4005 8.582C 90.5592 8.98333 90.6385 9.443 90.6385 9.961C 90.6385 10.2223 90.6105 10.3997 90.5545 10.493C 90.4985 10.5817 90.3912 10.626 90.2325 10.626L 85.7875 10.626ZM 93.686 3.598L 93.686 14L 91.957 14L 91.957 3.598L 93.686 3.598Z"/>
</defs>
</svg>
