<svg width="21" height="16" viewBox="0 0 21 16" version="1.1" xmlns="http://www.w3.org/2000/svg" xmlns:xlink="http://www.w3.org/1999/xlink">
<title>mail</title>
<desc>Created using Figma</desc>
<g id="Canvas" transform="translate(-1289 -1340)">
<g id="mail">
<g id="Vector">
<use xlink:href="#path0_fill" transform="translate(1289 1340)" fill="#FFFFFF"/>
</g>
<g id="Vector">
<use xlink:href="#path1_fill" transform="translate(1289.68 1340.7)" fill="#00AEFF"/>
</g>
<g id="Vector">
<use xlink:href="#path2_fill" transform="translate(1289 1340)" fill="#FFFFFF"/>
</g>
</g>
</g>
<defs>
<path id="path0_fill" d="M 20.3153 15.9997L 1.80051 15.9997C 0.80768 15.9997 -2.06004e-08 15.1792 -2.06004e-08 14.1707L -2.06004e-08 1.82898C -2.06004e-08 0.820452 0.80768 2.86988e-07 1.80051 2.86988e-07L 19.1992 2.86988e-07C 20.192 2.86988e-07 20.9997 0.820452 20.9997 1.82898L 20.9997 10.6899C 20.9997 11.0739 20.6933 11.3851 20.3153 11.3851C 19.9374 11.3851 19.6308 11.0739 19.6308 10.6899L 19.6308 1.82898C 19.6308 1.58717 19.4372 1.39047 19.1991 1.39047L 1.80056 1.39047C 1.56251 1.39047 1.36888 1.58722 1.36888 1.82898L 1.36888 14.1707C 1.36888 14.4125 1.56251 14.6093 1.80056 14.6093L 20.3154 14.6093C 20.6933 14.6093 20.9998 14.9206 20.9998 15.3045C 20.9998 15.6885 20.6933 15.9997 20.3153 15.9997Z"/>
<path id="path1_fill" d="M 19.6308 1.13372C 19.6308 1.49568 19.4608 1.83584 19.173 2.04929L 9.81545 8.99186L 0.457819 2.04929C 0.170109 1.83584 -3.5315e-08 1.49568 -3.5315e-08 1.13372C -3.5315e-08 0.507572 0.499719 -8.74662e-08 1.11607 -8.74662e-08L 18.5147 -8.74662e-08C 19.1312 -9.8046e-05 19.6308 0.507523 19.6308 1.13372Z"/>
<path id="path2_fill" d="M 10.4998 10.3824C 10.3582 10.3824 10.2164 10.3378 10.0962 10.2486L 0.738489 3.30605C 0.276041 2.96281 -4.70867e-08 2.41066 -4.70867e-08 1.82898C -4.70867e-08 0.820451 0.80768 -5.97891e-08 1.80051 -5.97891e-08L 19.1992 -5.97891e-08C 20.192 -5.97891e-08 20.9997 0.820451 20.9997 1.82898C 20.9997 2.41071 20.7236 2.96285 20.2612 3.30605L 10.9036 10.2486C 10.7833 10.3378 10.6415 10.3824 10.4998 10.3824ZM 1.80051 1.39047C 1.56247 1.39047 1.36883 1.58717 1.36883 1.82898C 1.36883 1.96843 1.43508 2.10092 1.54598 2.1832L 10.4998 8.82621L 19.4537 2.18315C 19.5646 2.10092 19.6308 1.96853 19.6308 1.82898C 19.6308 1.58717 19.4372 1.39047 19.1991 1.39047L 1.80051 1.39047Z"/>
</defs>
</svg>
