<svg width="685" height="436" viewBox="0 0 685 436" version="1.1" xmlns="http://www.w3.org/2000/svg" xmlns:xlink="http://www.w3.org/1999/xlink">
<title>Background</title>
<desc>Created using Figma</desc>
<g id="Canvas" transform="translate(330 182)">
<g id="Background">
<g id="Rectangle">
<use xlink:href="#path0_fill" transform="translate(-330 -182)" fill="url(#paint0_linear)"/>
</g>
<g id="Vector">
<use xlink:href="#path1_fill" transform="translate(-52.9386 -182)" fill="#FF6200"/>
<use xlink:href="#path2_fill" transform="translate(-52.9386 -182)" fill="#FF6200"/>
</g>
<g id="Vector 2" style="mix-blend-mode:overlay">
<use xlink:href="#path3_fill" transform="translate(-52.5559 -179.658)" fill="#D68888"/>
</g>
<g id="Exclude" opacity="0.11">
<use xlink:href="#path4_fill" transform="translate(-16.6125 -118.613)" fill="#050404"/>
</g>
</g>
</g>
<defs>
<linearGradient id="paint0_linear" x1="0" y1="0" x2="1" y2="0" gradientUnits="userSpaceOnUse" gradientTransform="matrix(960.531 9.89289e-14 -1.98796e-06 1279.08 9.93982e-07 -639.542)">
<stop offset="0.228685" stop-color="#4F4F4F"/>
<stop offset="0.939227" stop-color="#4F4F4F" stop-opacity="0"/>
</linearGradient>
<path id="path0_fill" d="M 0 10C 0 4.47715 4.47715 0 10 0L 280.838 0C 286.361 0 290.838 4.47715 290.838 10L 290.838 425.973C 290.838 431.496 286.361 435.973 280.838 435.973L 10 435.973C 4.47715 435.973 0 431.496 0 425.973L 0 10Z"/>
<path id="path1_fill" d="M 21.7761 7.66209C 21.7761 3.43043 25.0259 0 29.0348 0L 400.68 0C 404.689 0 407.939 3.43043 407.939 7.66209L 407.939 428.311C 407.939 432.542 404.689 435.973 400.68 435.973L 29.0348 435.973C 25.0259 435.973 21.7761 432.542 21.7761 428.311L 21.7761 7.66209Z"/>
<path id="path2_fill" d="M 0 0L 51.5367 0L 51.5367 435.973L 0 435.973L 0 0Z"/>
<path id="path3_fill" d="M 0 433.631C 0 433.631 399.159 433.692 401.05 433.631C 402.941 433.57 407.556 431.333 407.556 425.586L 407.556 11.4502C 407.333 6.50565 408.067 2.74122 405.642 0.340197C 397.606 -11.9192 20.5061 310.459 0 433.631Z"/>
<path id="path4_fill" fill-rule="evenodd" d="M 189.177 269.094C 217.175 269.094 239.871 246.435 239.871 218.484C 239.871 190.534 217.175 167.875 189.177 167.875C 161.179 167.875 138.482 190.534 138.482 218.484C 138.482 246.435 161.179 269.094 189.177 269.094ZM 189.177 266.655C 215.825 266.655 237.428 245.088 237.428 218.484C 237.428 191.881 215.825 170.314 189.177 170.314C 162.528 170.314 140.926 191.881 140.926 218.484C 140.926 245.088 162.528 266.655 189.177 266.655ZM 245.435 282.672C 267.629 282.672 285.62 264.711 285.62 242.555C 285.62 220.399 267.629 202.438 245.435 202.438C 223.242 202.438 205.251 220.399 205.251 242.555C 205.251 264.711 223.242 282.672 245.435 282.672ZM 245.435 280.739C 266.559 280.739 283.683 263.643 283.683 242.555C 283.683 221.466 266.559 204.371 245.435 204.371C 224.312 204.371 207.187 221.466 207.187 242.555C 207.187 263.643 224.312 280.739 245.435 280.739ZM 228.743 204.906C 285.422 204.906 331.369 159.036 331.369 102.453C 331.369 45.8698 285.422 0 228.743 0C 172.065 0 126.118 45.8698 126.118 102.453C 126.118 159.036 172.065 204.906 228.743 204.906ZM 228.743 199.969C 282.69 199.969 326.423 156.31 326.423 102.453C 326.423 48.5967 282.69 4.9375 228.743 4.9375C 174.796 4.9375 131.064 48.5967 131.064 102.453C 131.064 156.31 174.796 199.969 228.743 199.969ZM 102.625 274.031C 159.304 274.031 205.251 228.161 205.251 171.578C 205.251 114.995 159.304 69.125 102.625 69.125C 45.9469 69.125 0 114.995 0 171.578C 0 228.161 45.9469 274.031 102.625 274.031ZM 102.625 269.094C 156.572 269.094 200.305 225.435 200.305 171.578C 200.305 117.722 156.572 74.0625 102.625 74.0625C 48.6784 74.0625 4.9458 117.722 4.9458 171.578C 4.9458 225.435 48.6784 269.094 102.625 269.094Z"/>
</defs>
</svg>
