<svg width="73" height="42" viewBox="0 0 73 42" version="1.1" xmlns="http://www.w3.org/2000/svg" xmlns:xlink="http://www.w3.org/1999/xlink">
<title>Canvas</title>
<desc>Created using Figma</desc>
<g id="Canvas" transform="translate(186 209)">
<g id="Canvas">
<g id="Layer 1">
<g id="Vector">
<g id="Vector">
<use xlink:href="#path0_fill" transform="translate(-172.655 -200.91)" fill="#56CCF2"/>
</g>
</g>
<g id="Vector">
<g id="Vector">
<use xlink:href="#path1_fill" transform="translate(-176.349 -196.745)" fill="#FF0000"/>
</g>
</g>
<g id="Vector">
<g id="Vector">
<use xlink:href="#path2_fill" transform="translate(-161.654 -201.188)" fill="#FFFFFF"/>
</g>
</g>
<g id="Vector">
<g id="Vector">
<use xlink:href="#path3_fill" transform="translate(-185.35 -184.8)" fill="#56CCF2"/>
</g>
</g>
<g id="Vector">
<g id="Vector">
<use xlink:href="#path4_fill" transform="translate(-172.896 -182.959)" fill="#56CCF2"/>
</g>
</g>
<g id="Vector">
<g id="Vector">
<use xlink:href="#path5_fill" transform="translate(-163.76 -182.959)" fill="#56CCF2"/>
</g>
</g>
<g id="Vector">
<g id="Vector">
<use xlink:href="#path6_fill" transform="translate(-185.989 -206.487)" fill="#FFFFFF"/>
</g>
</g>
<g id="Vector">
<g id="Vector">
<use xlink:href="#path7_fill" transform="translate(-144.925 -208.005)" fill="#FFFFFF"/>
</g>
</g>
<g id="Vector">
<g id="Vector">
<use xlink:href="#path8_fill" transform="translate(-136.631 -200.919)" fill="#FFFFFF"/>
</g>
</g>
<g id="Vector">
<g id="Vector">
<use xlink:href="#path9_fill" transform="translate(-130.09 -193.465)" fill="#FFFFFF"/>
</g>
</g>
<g id="Vector">
<g id="Vector">
<use xlink:href="#path10_fill" transform="translate(-126.909 -191.269)" fill="#FFFFFF"/>
</g>
</g>
<g id="Vector">
<g id="Vector">
<use xlink:href="#path11_fill" transform="translate(-126.906 -200.903)" fill="#FFFFFF"/>
</g>
</g>
<g id="Vector">
<g id="Vector">
<use xlink:href="#path12_fill" transform="translate(-120.368 -200.915)" fill="#FFFFFF"/>
</g>
</g>
</g>
</g>
</g>
<defs>
<path id="path0_fill" d="M 10.0003 5.83747L 10.0003 14.8912L 6.51687 14.8912L 6.51687 5.86472C 6.51687 4.73475 6.28313 3.93063 5.8156 3.45236C 5.34043 2.96988 4.65773 2.85135 3.9335 2.82304C 3.82427 2.83038 3.6768 2.82304 3.6211 2.83354C 3.52061 2.84961 3.42119 2.86955 3.32287 2.89332C 3.12889 2.93955 2.93982 3.00311 2.75815 3.08316C 2.59612 3.15479 2.43985 3.23788 2.29063 3.33174L 2.13224 3.42824L -5.00835e-15 0.813426L 0.0994021 0.752591C 0.622825 0.453626 1.20015 0.251882 1.80126 0.157888C 2.18728 0.102457 2.57657 0.0705771 2.96678 0.0624416C 3.16888 0.0540506 3.37095 0.0456602 3.57302 0.0309763C 3.61674 0.0309763 4.02963 -0.0235644 4.08097 0.0120968C 4.22048 0.00329491 4.36063 0.0135359 4.49715 0.0425137C 4.79099 0.0750285 5.08592 0.0834192 5.37976 0.112787C 6.60754 0.233406 7.79381 0.585822 8.64583 1.46686C 9.54956 2.40175 10.0011 3.85861 10.0003 5.83747Z"/>
<path id="path1_fill" d="M 0.00227803 -1.93793e-15C 0.00227803 0.0118385 0.00227803 0.0247537 0.00227803 0.0365923C -0.00133142 0.0247537 -0.000128266 0.0129148 0.00227803 -1.93793e-15Z"/>
<path id="path2_fill" d="M 6.03298 15.4592C 6.82163 15.4737 7.60342 15.3158 8.31922 14.9976C 8.9963 14.6803 9.58746 14.2164 10.0462 13.6425L 10.0462 15.1707C 10.0462 15.3511 10.0375 15.5231 10.0211 15.6878L 13.5166 15.6878C 13.5268 15.5193 13.5319 15.3469 13.5319 15.1707L 13.5319 0.276908L 10.304 0.276908L 10.2931 2.21835C 9.84567 1.5394 9.23312 0.975009 8.50821 0.573735C 7.759 0.181091 6.9158 -0.0163487 6.06246 0.00105915C 4.14141 0.00105915 2.65073 0.728269 1.59044 2.18269C 0.530148 3.63711 1.44995e-14 5.55301 1.44995e-14 7.93045L 1.44995e-14 8.21991C 1.44995e-14 10.3876 0.53051 12.1357 1.59153 13.4642C 2.65256 14.7928 4.13302 15.4577 6.03298 15.4592ZM 3.46817 7.93045C 3.46817 6.39211 3.75 5.14187 4.31365 4.1797C 4.8773 3.21757 5.75625 2.73824 6.95053 2.74172C 7.59766 2.72415 8.23656 2.88426 8.7922 3.20323C 9.3137 3.52128 9.74461 3.95883 10.0462 4.47654L 10.0462 11.0004C 9.76128 11.5289 9.3329 11.9735 8.80641 12.2874C 8.29665 12.586 7.6682 12.7353 6.92104 12.7353C 5.72675 12.7353 4.85289 12.3269 4.29944 11.5102C 3.74599 10.6935 3.46889 9.59708 3.46817 8.22097L 3.46817 7.93045Z"/>
<path id="path3_fill" d="M 0.0253967 0.0154417C -0.339443 5.85863 3.25434 11.7627 9.01531 14.7813C 14.7763 17.7999 22.4511 17.8041 28.2165 14.7907C 33.9818 11.7774 37.582 5.87541 37.2249 0.0332722L 33.8167 0.00914877C 34.5158 4.24968 32.0887 8.66013 28.1246 11.2005C 21.2429 15.6109 10.3141 14.8778 5.6389 8.35598C 4.83309 7.26101 4.24602 6.0319 3.90756 4.7311C 3.73061 4.03256 3.7175 3.2134 3.68253 2.49285C 3.64869 1.80584 3.61918 0.693004 3.62247 0.00705063C 3.62247 -0.0139266 3.41382 0.0185881 3.41601 0.0185881L 0.0253967 0.0154417Z"/>
<path id="path4_fill" d="M 1.60355 3.07946C 2.48917 3.07946 3.20711 2.39009 3.20711 1.53973C 3.20711 0.689361 2.48917 4.05795e-15 1.60355 4.05795e-15C 0.717934 4.05795e-15 0 0.689361 0 1.53973C 0 2.39009 0.717934 3.07946 1.60355 3.07946Z"/>
<path id="path5_fill" d="M 1.60355 3.07946C 2.48916 3.07946 3.20711 2.39009 3.20711 1.53973C 3.20711 0.689361 2.48916 4.05795e-15 1.60355 4.05795e-15C 0.717933 4.05795e-15 -4.45376e-17 0.689361 -4.45376e-17 1.53973C -4.45376e-17 2.39009 0.717933 3.07946 1.60355 3.07946Z"/>
<path id="path6_fill" d="M 3.32071 8.10873C 3.78664 7.4654 4.40174 6.93475 5.1176 6.55853C 5.83776 6.18832 6.64383 5.99924 7.46067 6.00892C 9.02708 6.00892 10.2501 6.48335 11.1298 7.43222C 12.0095 8.38108 12.4504 9.84425 12.4526 11.8217L 12.4526 20.4685L 9.12756 20.4685L 9.12756 11.7955C 9.12756 10.6844 8.90218 9.87746 8.45141 9.37471C 8.00062 8.87194 7.32883 8.62058 6.43605 8.62058C 5.79948 8.60497 5.16751 8.72834 4.58782 8.98138C 4.08431 9.20979 3.64778 9.55471 3.31742 9.98513L 3.31742 20.4737L 0 20.4737L 0 3.60713e-16L 3.32071 3.60713e-16L 3.32071 8.10873Z"/>
<path id="path7_fill" d="M 6.57367 0.0776155C 6.22446 0.0263244 5.87174 0.000379059 5.51847 1.17106e-31C 3.77438 -2.67828e-16 2.41953 0.4594 1.4539 1.3782C 0.488274 2.297 0.00655254 3.60388 0.00873723 5.29885L 0.00873723 7.08923L -2.67409e-14 7.08923L -2.67409e-14 9.64952L 0.00873723 9.64952L 0.00873723 22.4624L 3.61344 22.4624L 3.61344 9.64952L 6.59989 9.64952L 6.59989 7.08923L 3.61344 7.08923L 3.61344 5.29885C 3.61344 4.50311 3.80896 3.89231 4.20002 3.46648C 4.59108 3.04065 5.17914 2.82913 5.96414 2.83193C 6.22479 2.83115 6.48525 2.84551 6.74409 2.87493C 6.98659 2.9036 7.20687 2.93681 7.40494 2.97456L 7.77633 0.303121C 7.33138 0.205227 6.9305 0.130059 6.57367 0.0776155Z"/>
<path id="path8_fill" d="M 6.76922 12.8422C 6.63157 12.8506 6.49175 12.8559 6.34538 12.8559C 5.40378 12.8559 4.71197 12.5835 4.26993 12.0388C 3.82791 11.4941 3.60508 10.4879 3.60143 9.02019L 3.60143 6.37495e-15L -6.70749e-15 6.37495e-15L -6.70749e-15 8.99291C -6.70749e-15 11.2759 0.485359 12.9594 1.45608 14.0432C 2.42681 15.127 3.77402 15.6693 5.49772 15.67C 5.9445 15.67 6.3716 15.7297 6.76812 15.6437L 6.76922 12.8422Z"/>
<path id="path9_fill" d="M 6.78233 0.00104988L 6.78233 1.54392C 6.78233 1.68657 6.78233 1.82711 6.78233 1.96347C 6.72259 4.03741 6.23686 5.58097 5.32513 6.59418C 4.75882 7.23398 4.01539 7.70672 3.18089 7.9577C 2.56634 8.13878 1.92627 8.22725 1.28349 8.21991C 1.03662 8.21991 0.789761 8.25138 0.542893 8.25138C 0.384818 8.23324 0.225827 8.22342 0.0666348 8.22201L 0.0611678 8.22201C -3.06913e-06 8.22832 0.013108 8.13916 0.013108 8.06048L 0.013108 5.69006C 0.013108 5.63134 -0.016385 5.48029 0.013108 5.42994C 0.0144123 5.42646 0.0164394 5.42328 0.0190684 5.42056C 0.0216975 5.41787 0.0248718 5.41569 0.028399 5.41422C 0.0563862 5.40732 0.084867 5.40242 0.113605 5.39954L 0.140913 5.39954C 0.250146 5.388 0.383411 5.38276 0.434751 5.38276C 1.37635 5.38276 2.07325 5.13733 2.51674 4.59191C 2.92529 4.09264 3.14666 3.20533 3.18089 1.9299C 3.18089 1.81453 3.18089 1.69601 3.18089 1.57329L 3.18089 1.40332e-16L 6.78233 0.00104988Z"/>
<path id="path10_fill" d="M 2.56118e-14 6.37495e-15L 3.58723 6.37495e-15C 3.50202 1.95438 3.02103 3.42032 2.14426 4.39788C 1.57793 5.03767 0.834503 5.51042 2.56118e-14 5.7614L 2.56118e-14 6.37495e-15Z"/>
<path id="path11_fill" d="M 6.76483 0.0447511L 6.76483 2.84627L 6.65559 2.83996L 6.64797 2.83996C 6.54855 2.83996 6.44916 2.83261 6.34648 2.83261C 5.40488 2.83261 4.71123 3.10497 4.26557 3.64968C 3.85339 4.15384 3.63166 5.05307 3.60034 6.34734L -4.00668e-14 6.34734C 0.0466064 4.24125 0.530509 2.67424 1.45171 1.64636C 2.42244 0.561839 3.76966 0.0195787 5.49335 0.0195787C 5.87676 0.0195787 6.2438 -0.0244734 6.59224 0.0195787C 6.65342 0.0237742 6.70913 0.0300672 6.76483 0.0447511Z"/>
<path id="path12_fill" d="M 0.0273089 2.83716C 0.161883 2.85946 0.298187 2.87069 0.434747 2.87072C 1.37634 2.87072 2.07325 3.11617 2.51674 3.66157C 2.96023 4.20698 3.18525 5.21283 3.18525 6.68018L 3.18525 15.7004L 6.78123 15.7004L 6.78123 6.70849C 6.78123 4.42549 6.29585 2.74207 5.32513 1.65825C 4.35443 0.574427 3.00721 0.0321654 1.28349 0.0314662C 1.03663 0.0314662 0.789756 7.83523e-15 0.542888 7.83523e-15C 0.382315 7.83523e-15 0.221745 0.0471994 0.0611712 0.0293687C 2.69723e-07 0.0230756 0.013108 0.112229 0.013108 0.190893L 0.013108 2.56027C 0.013108 2.619 -0.016385 2.77003 0.013108 2.82038C 0.0142004 2.82772 0.0185703 2.83506 0.0273089 2.83716Z"/>
</defs>
</svg>
