<svg width="21" height="26" viewBox="0 0 21 26" version="1.1" xmlns="http://www.w3.org/2000/svg" xmlns:xlink="http://www.w3.org/1999/xlink">
<title>&#226;&#130;&#166;</title>
<desc>Created using Figma</desc>
<g id="Canvas" transform="translate(327 -33)">
<g id="&#226;&#130;&#166;">
<use xlink:href="#path0_fill" transform="translate(-327 23)" fill="#FFFFFF"/>
</g>
</g>
<defs>
<path id="path0_fill" d="M 17.856 21.924L 17.856 24.552L 20.952 24.552L 20.952 27.432L 17.856 27.432L 17.856 36L 14.148 36L 7.596 20.16L 7.596 36L 3.744 36L 3.744 27.432L 0.684 27.432L 0.684 24.552L 3.744 24.552L 3.744 21.924L 0.684 21.924L 0.684 19.08L 3.744 19.08L 3.744 10.62L 7.452 10.62L 14.004 27.216L 14.004 10.62L 17.856 10.62L 17.856 19.08L 20.952 19.08L 20.952 21.924L 17.856 21.924Z"/>
</defs>
</svg>
