<svg width="284" height="32" viewBox="0 0 284 32" version="1.1" xmlns="http://www.w3.org/2000/svg" xmlns:xlink="http://www.w3.org/1999/xlink">
<title>TransferFunds</title>
<desc>Created using Figma</desc>
<g id="Canvas" transform="translate(9805 -2741)">
<g id="TransferFunds">
<use xlink:href="#path0_fill" transform="translate(-9815 2716)" fill="#333333"/>
<use xlink:href="#path1_fill" transform="translate(-9815 2716)" fill="#FD8032"/>
</g>
</g>
<defs>
<path id="path0_fill" d="M 197.719 44.3789L 186.469 44.3789L 186.469 56L 180.609 56L 180.609 27.5625L 199.125 27.5625L 199.125 32.3086L 186.469 32.3086L 186.469 39.6523L 197.719 39.6523L 197.719 44.3789ZM 216.379 53.8516C 214.986 55.5443 213.059 56.3906 210.598 56.3906C 208.332 56.3906 206.6 55.7396 205.402 54.4375C 204.217 53.1354 203.612 51.2279 203.586 48.7148L 203.586 34.8672L 209.23 34.8672L 209.23 48.5195C 209.23 50.7201 210.233 51.8203 212.238 51.8203C 214.152 51.8203 215.467 51.1562 216.184 49.8281L 216.184 34.8672L 221.848 34.8672L 221.848 56L 216.535 56L 216.379 53.8516ZM 233.301 34.8672L 233.477 37.3086C 234.987 35.4206 237.012 34.4766 239.551 34.4766C 241.79 34.4766 243.457 35.1341 244.551 36.4492C 245.645 37.7643 246.204 39.7305 246.23 42.3477L 246.23 56L 240.586 56L 240.586 42.4844C 240.586 41.2865 240.326 40.4206 239.805 39.8867C 239.284 39.3398 238.418 39.0664 237.207 39.0664C 235.618 39.0664 234.427 39.7435 233.633 41.0977L 233.633 56L 227.988 56L 227.988 34.8672L 233.301 34.8672ZM 251.648 45.2773C 251.648 41.9831 252.384 39.3594 253.855 37.4062C 255.34 35.4531 257.365 34.4766 259.93 34.4766C 261.987 34.4766 263.686 35.2448 265.027 36.7812L 265.027 26L 270.691 26L 270.691 56L 265.594 56L 265.32 53.7539C 263.914 55.5117 262.104 56.3906 259.891 56.3906C 257.404 56.3906 255.405 55.4141 253.895 53.4609C 252.397 51.4948 251.648 48.7669 251.648 45.2773ZM 257.293 45.6875C 257.293 47.6667 257.638 49.1836 258.328 50.2383C 259.018 51.293 260.021 51.8203 261.336 51.8203C 263.081 51.8203 264.311 51.0846 265.027 49.6133L 265.027 41.2734C 264.324 39.8021 263.107 39.0664 261.375 39.0664C 258.654 39.0664 257.293 41.2734 257.293 45.6875ZM 288.512 50.1602C 288.512 49.4701 288.167 48.9297 287.477 48.5391C 286.799 48.1354 285.706 47.7773 284.195 47.4648C 279.169 46.4102 276.656 44.2747 276.656 41.0586C 276.656 39.1836 277.431 37.6211 278.98 36.3711C 280.543 35.1081 282.581 34.4766 285.094 34.4766C 287.776 34.4766 289.918 35.1081 291.52 36.3711C 293.134 37.6341 293.941 39.2747 293.941 41.293L 288.297 41.293C 288.297 40.4857 288.036 39.8216 287.516 39.3008C 286.995 38.7669 286.181 38.5 285.074 38.5C 284.124 38.5 283.388 38.7148 282.867 39.1445C 282.346 39.5742 282.086 40.1211 282.086 40.7852C 282.086 41.4102 282.379 41.918 282.965 42.3086C 283.564 42.6862 284.566 43.0182 285.973 43.3047C 287.379 43.5781 288.564 43.8906 289.527 44.2422C 292.509 45.3359 294 47.2305 294 49.9258C 294 51.8529 293.173 53.4154 291.52 54.6133C 289.866 55.7982 287.73 56.3906 285.113 56.3906C 283.342 56.3906 281.767 56.0781 280.387 55.4531C 279.02 54.8151 277.945 53.9492 277.164 52.8555C 276.383 51.7487 275.992 50.5573 275.992 49.2812L 281.344 49.2812C 281.396 50.2839 281.767 51.0521 282.457 51.5859C 283.147 52.1198 284.072 52.3867 285.23 52.3867C 286.311 52.3867 287.125 52.1849 287.672 51.7812C 288.232 51.3646 288.512 50.8242 288.512 50.1602Z"/>
<path id="path1_fill" d="M 33.9453 32.3086L 25.2344 32.3086L 25.2344 56L 19.375 56L 19.375 32.3086L 10.7812 32.3086L 10.7812 27.5625L 33.9453 27.5625L 33.9453 32.3086ZM 49.5195 40.1602C 48.7513 40.056 48.0742 40.0039 47.4883 40.0039C 45.3529 40.0039 43.9531 40.7266 43.2891 42.1719L 43.2891 56L 37.6445 56L 37.6445 34.8672L 42.9766 34.8672L 43.1328 37.3867C 44.2656 35.4466 45.8346 34.4766 47.8398 34.4766C 48.4648 34.4766 49.0508 34.5612 49.5977 34.7305L 49.5195 40.1602ZM 65.9141 56C 65.6536 55.4922 65.4648 54.8607 65.3477 54.1055C 63.9805 55.6289 62.2031 56.3906 60.0156 56.3906C 57.9453 56.3906 56.2266 55.7917 54.8594 54.5938C 53.5052 53.3958 52.8281 51.8854 52.8281 50.0625C 52.8281 47.8229 53.6549 46.1042 55.3086 44.9062C 56.9753 43.7083 59.3776 43.1029 62.5156 43.0898L 65.1133 43.0898L 65.1133 41.8789C 65.1133 40.9023 64.8594 40.1211 64.3516 39.5352C 63.8568 38.9492 63.069 38.6562 61.9883 38.6562C 61.0378 38.6562 60.2891 38.8841 59.7422 39.3398C 59.2083 39.7956 58.9414 40.4206 58.9414 41.2148L 53.2969 41.2148C 53.2969 39.9909 53.6745 38.8581 54.4297 37.8164C 55.1849 36.7747 56.2526 35.9609 57.6328 35.375C 59.013 34.776 60.5625 34.4766 62.2812 34.4766C 64.8854 34.4766 66.9492 35.1341 68.4727 36.4492C 70.0091 37.7513 70.7773 39.5872 70.7773 41.957L 70.7773 51.1172C 70.7904 53.1224 71.0703 54.6393 71.6172 55.668L 71.6172 56L 65.9141 56ZM 61.2461 52.0742C 62.0794 52.0742 62.8477 51.8919 63.5508 51.5273C 64.2539 51.1497 64.7747 50.6484 65.1133 50.0234L 65.1133 46.3906L 63.0039 46.3906C 60.1784 46.3906 58.6745 47.3672 58.4922 49.3203L 58.4727 49.6523C 58.4727 50.3555 58.7201 50.9349 59.2148 51.3906C 59.7096 51.8464 60.3867 52.0742 61.2461 52.0742ZM 82.3086 34.8672L 82.4844 37.3086C 83.9948 35.4206 86.0195 34.4766 88.5586 34.4766C 90.7982 34.4766 92.4648 35.1341 93.5586 36.4492C 94.6523 37.7643 95.2122 39.7305 95.2383 42.3477L 95.2383 56L 89.5938 56L 89.5938 42.4844C 89.5938 41.2865 89.3333 40.4206 88.8125 39.8867C 88.2917 39.3398 87.4258 39.0664 86.2148 39.0664C 84.6263 39.0664 83.4349 39.7435 82.6406 41.0977L 82.6406 56L 76.9961 56L 76.9961 34.8672L 82.3086 34.8672ZM 112.98 50.1602C 112.98 49.4701 112.635 48.9297 111.945 48.5391C 111.268 48.1354 110.174 47.7773 108.664 47.4648C 103.638 46.4102 101.125 44.2747 101.125 41.0586C 101.125 39.1836 101.9 37.6211 103.449 36.3711C 105.012 35.1081 107.049 34.4766 109.562 34.4766C 112.245 34.4766 114.387 35.1081 115.988 36.3711C 117.603 37.6341 118.41 39.2747 118.41 41.293L 112.766 41.293C 112.766 40.4857 112.505 39.8216 111.984 39.3008C 111.464 38.7669 110.65 38.5 109.543 38.5C 108.592 38.5 107.857 38.7148 107.336 39.1445C 106.815 39.5742 106.555 40.1211 106.555 40.7852C 106.555 41.4102 106.848 41.918 107.434 42.3086C 108.033 42.6862 109.035 43.0182 110.441 43.3047C 111.848 43.5781 113.033 43.8906 113.996 44.2422C 116.978 45.3359 118.469 47.2305 118.469 49.9258C 118.469 51.8529 117.642 53.4154 115.988 54.6133C 114.335 55.7982 112.199 56.3906 109.582 56.3906C 107.811 56.3906 106.236 56.0781 104.855 55.4531C 103.488 54.8151 102.414 53.9492 101.633 52.8555C 100.852 51.7487 100.461 50.5573 100.461 49.2812L 105.812 49.2812C 105.865 50.2839 106.236 51.0521 106.926 51.5859C 107.616 52.1198 108.54 52.3867 109.699 52.3867C 110.78 52.3867 111.594 52.1849 112.141 51.7812C 112.701 51.3646 112.98 50.8242 112.98 50.1602ZM 125.664 56L 125.664 39.0078L 122.52 39.0078L 122.52 34.8672L 125.664 34.8672L 125.664 33.0703C 125.664 30.7005 126.341 28.8646 127.695 27.5625C 129.062 26.2474 130.97 25.5898 133.418 25.5898C 134.199 25.5898 135.156 25.7201 136.289 25.9805L 136.23 30.3555C 135.762 30.2383 135.189 30.1797 134.512 30.1797C 132.389 30.1797 131.328 31.1758 131.328 33.168L 131.328 34.8672L 135.527 34.8672L 135.527 39.0078L 131.328 39.0078L 131.328 56L 125.664 56ZM 149.715 56.3906C 146.616 56.3906 144.09 55.4401 142.137 53.5391C 140.197 51.638 139.227 49.1055 139.227 45.9414L 139.227 45.3945C 139.227 43.2721 139.637 41.3776 140.457 39.7109C 141.277 38.0312 142.436 36.7422 143.934 35.8438C 145.444 34.9323 147.163 34.4766 149.09 34.4766C 151.98 34.4766 154.253 35.388 155.906 37.2109C 157.573 39.0339 158.406 41.6185 158.406 44.9648L 158.406 47.2695L 144.949 47.2695C 145.132 48.6497 145.678 49.7565 146.59 50.5898C 147.514 51.4232 148.68 51.8398 150.086 51.8398C 152.26 51.8398 153.96 51.0521 155.184 49.4766L 157.957 52.582C 157.111 53.7799 155.965 54.7174 154.52 55.3945C 153.074 56.0586 151.473 56.3906 149.715 56.3906ZM 149.07 39.0469C 147.951 39.0469 147.039 39.4245 146.336 40.1797C 145.646 40.9349 145.203 42.0156 145.008 43.4219L 152.859 43.4219L 152.859 42.9727C 152.833 41.7227 152.495 40.7591 151.844 40.082C 151.193 39.3919 150.268 39.0469 149.07 39.0469ZM 175.504 40.1602C 174.736 40.056 174.059 40.0039 173.473 40.0039C 171.337 40.0039 169.938 40.7266 169.273 42.1719L 169.273 56L 163.629 56L 163.629 34.8672L 168.961 34.8672L 169.117 37.3867C 170.25 35.4466 171.819 34.4766 173.824 34.4766C 174.449 34.4766 175.035 34.5612 175.582 34.7305L 175.504 40.1602Z"/>
</defs>
</svg>
