<svg width="263" height="174" viewBox="0 0 263 174" version="1.1" xmlns="http://www.w3.org/2000/svg" xmlns:xlink="http://www.w3.org/1999/xlink">
<title>W6</title>
<desc>Created using Figma</desc>
<g id="Canvas" transform="translate(-11778 -8653)">
<g id="W6">
<use xlink:href="#path0_fill" transform="translate(11769 8578)" fill="#FD8032"/>
</g>
</g>
<defs>
<path id="path0_fill" d="M 97.6 149.6C 111.2 108.667 120.267 88.2 124.8 88.2C 125.333 88.2 125.933 88.2667 126.6 88.4C 128.733 88.5333 131.133 87.6667 133.8 85.8C 137.267 82.8667 141.267 80.6 145.8 79C 150.467 77.4 155 76.8 159.4 77.2C 169.667 78.1333 176.133 83.5333 178.8 93.4L 178.8 94C 178.133 95.8667 177.467 97.4 176.8 98.6L 177.6 98.6C 174.267 102.733 171.067 108.133 168 114.8C 164.933 121.333 162.6 126.467 161 130.2C 159.4 133.8 157.133 138.4 154.2 144C 151.267 149.6 147.867 156.467 144 164.6C 140.267 172.733 136.333 180.8 132.2 188.8C 122.333 208 112.533 223.067 102.8 234C 97.8667 240 91.2 242.933 82.8 242.8C 79.2 242.667 75.7333 241.733 72.4 240C 69.0667 238.267 66.4667 235.6 64.6 232L 60.4 219.4C 58.6667 220.867 56.6667 222.733 54.4 225C 52.1333 227.267 49.7333 229.6 47.2 232C 41.3333 237.6 36.8 240.533 33.6 240.8C 30.4 241.067 27.6667 241.067 25.4 240.8C 23.1333 240.667 21 240.2 19 239.4C 14.4667 237.667 11.5333 234.333 10.2 229.4C 7.93333 206.6 9.06667 177.467 13.6 142C 14.8 133.333 15.8667 124.8 16.8 116.4C 19.0667 104.533 23.3333 96 29.6 90.8C 34.9333 86.2667 40.1333 84.9333 45.2 86.8C 47.4667 87.6 49.2 88.9333 50.4 90.8C 51.6 92.6667 52 94.9333 51.6 97.6C 51.8667 105.733 51.8 111.8 51.4 115.8C 50.8667 122.6 50.6667 127.6 50.8 130.8C 50.9333 134 50.8667 136.667 50.6 138.8C 50.4667 140.8 50.3333 142.733 50.2 144.6C 50.2 146.333 50.2667 147.8 50.4 149C 50.6667 150.067 51.2 150.267 52 149.6C 55.0667 143.067 57.6667 138.333 59.8 135.4C 61.9333 132.467 64.2 129.4 66.6 126.2C 70.3333 122.867 73.6 121.6 76.4 122.4C 77.8667 122.667 79.4 123.2 81 124C 82.6 124.667 84.7333 125.267 87.4 125.8C 89.1333 127.267 90.2667 128.867 90.8 130.6C 91.2 131 91.6 131.4 92 131.8C 92.4 132.067 92.6667 132.467 92.8 133C 93.0667 133.4 93.4 134.4 93.8 136C 94.3333 137.6 94.8667 139.333 95.4 141.2C 95.9333 142.933 96.4 144.667 96.8 146.4C 97.2 148 97.4667 149.067 97.6 149.6ZM 102.4 233.4C 102.4 233.667 102.4 233.733 102.4 233.6C 102.533 233.333 102.6 233.067 102.6 232.8L 102.4 233.4ZM 242.888 76.4C 247.554 74.8 252.554 75 257.887 77C 263.087 78.8667 265.021 81.3333 263.688 84.4C 263.021 85.8667 263.021 87.0667 263.688 88C 264.354 88.9333 265.221 89.8667 266.288 90.8C 267.354 91.6 268.354 92.4 269.288 93.2C 270.354 93.8667 270.954 94.6667 271.088 95.6C 271.621 98 268.887 100.867 262.888 104.2C 260.354 105 257.554 106.267 254.488 108C 251.421 109.6 248.154 111.267 244.687 113C 241.221 114.733 237.421 117.4 233.288 121C 229.287 124.467 225.488 128.267 221.887 132.4C 215.354 140.267 209.354 149.4 203.888 159.8C 207.487 156.467 211.687 153.933 216.487 152.2C 221.421 150.333 226.021 149.533 230.287 149.8C 234.554 149.933 238.621 151.133 242.488 153.4C 246.487 155.667 249.888 158.667 252.688 162.4C 259.221 170.933 261.688 180.4 260.088 190.8C 258.487 201.2 255.821 210.067 252.087 217.4C 248.488 224.733 244.021 230.733 238.687 235.4C 228.421 244.2 214.754 248.6 197.688 248.6C 179.021 247.533 166.354 240.933 159.688 228.8C 153.421 217.333 152.354 201.733 156.487 182C 162.621 156 172.221 134.6 185.287 117.8C 199.554 99.4 218.754 85.6 242.888 76.4ZM 218.687 180.8C 209.487 185.333 203.087 192.867 199.488 203.4C 198.287 206.6 197.554 209.733 197.287 212.8C 197.821 213.733 198.354 214.333 198.888 214.6C 203.021 217.533 207.154 216.133 211.287 210.4C 215.021 205.067 217.421 199.933 218.488 195C 219.554 189.933 220.087 186.333 220.087 184.2C 220.087 182.067 219.621 180.933 218.687 180.8Z"/>
</defs>
</svg>
