<svg width="61" height="63" viewBox="0 0 61 63" version="1.1" xmlns="http://www.w3.org/2000/svg" xmlns:xlink="http://www.w3.org/1999/xlink">
<title>Group</title>
<desc>Created using Figma</desc>
<g id="Canvas" transform="translate(6954 -283)">
<g id="Group">
<g id="W1">
<use xlink:href="#path0_fill" transform="translate(-6956 272)" fill="#FFFFFF"/>
</g>
<g id="Wallet">
<use xlink:href="#path1_fill" transform="translate(-6950 329)" fill="#FFFFFF"/>
</g>
</g>
</g>
<defs>
<path id="path0_fill" d="M 24.4 29.9C 27.8 19.6667 30.0667 14.55 31.2 14.55C 31.3333 14.55 31.4833 14.5667 31.65 14.6C 32.1833 14.6333 32.7833 14.4167 33.45 13.95C 34.3167 13.2167 35.3167 12.65 36.45 12.25C 37.6167 11.85 38.75 11.7 39.85 11.8C 42.4167 12.0333 44.0333 13.3833 44.7 15.85L 44.7 16C 44.5333 16.4667 44.3667 16.85 44.2 17.15L 44.4 17.15C 43.5667 18.1833 42.7667 19.5333 42 21.2C 41.2333 22.8333 40.65 24.1167 40.25 25.05C 39.85 25.95 39.2833 27.1 38.55 28.5C 37.8167 29.9 36.9667 31.6167 36 33.65C 35.0667 35.6833 34.0833 37.7 33.05 39.7C 30.5833 44.5 28.1333 48.2667 25.7 51C 24.4667 52.5 22.8 53.2333 20.7 53.2C 19.8 53.1667 18.9333 52.9333 18.1 52.5C 17.2667 52.0667 16.6167 51.4 16.15 50.5L 15.1 47.35C 14.6667 47.7167 14.1667 48.1833 13.6 48.75C 13.0333 49.3167 12.4333 49.9 11.8 50.5C 10.3333 51.9 9.2 52.6333 8.4 52.7C 7.6 52.7667 6.91667 52.7667 6.35 52.7C 5.78333 52.6667 5.25 52.55 4.75 52.35C 3.61667 51.9167 2.88333 51.0833 2.55 49.85C 1.98333 44.15 2.26667 36.8667 3.4 28C 3.7 25.8333 3.96667 23.7 4.2 21.6C 4.76667 18.6333 5.83333 16.5 7.4 15.2C 8.73333 14.0667 10.0333 13.7333 11.3 14.2C 11.8667 14.4 12.3 14.7333 12.6 15.2C 12.9 15.6667 13 16.2333 12.9 16.9C 12.9667 18.9333 12.95 20.45 12.85 21.45C 12.7167 23.15 12.6667 24.4 12.7 25.2C 12.7333 26 12.7167 26.6667 12.65 27.2C 12.6167 27.7 12.5833 28.1833 12.55 28.65C 12.55 29.0833 12.5667 29.45 12.6 29.75C 12.6667 30.0167 12.8 30.0667 13 29.9C 13.7667 28.2667 14.4167 27.0833 14.95 26.35C 15.4833 25.6167 16.05 24.85 16.65 24.05C 17.5833 23.2167 18.4 22.9 19.1 23.1C 19.4667 23.1667 19.85 23.3 20.25 23.5C 20.65 23.6667 21.1833 23.8167 21.85 23.95C 22.2833 24.3167 22.5667 24.7167 22.7 25.15C 22.8 25.25 22.9 25.35 23 25.45C 23.1 25.5167 23.1667 25.6167 23.2 25.75C 23.2667 25.85 23.35 26.1 23.45 26.5C 23.5833 26.9 23.7167 27.3333 23.85 27.8C 23.9833 28.2333 24.1 28.6667 24.2 29.1C 24.3 29.5 24.3667 29.7667 24.4 29.9ZM 25.6 50.85C 25.6 50.9167 25.6 50.9333 25.6 50.9C 25.6333 50.8333 25.65 50.7667 25.65 50.7L 25.6 50.85ZM 42.6719 23.95C 42.5052 23.2833 42.5885 22.65 42.9219 22.05C 43.2552 21.45 43.8385 20.85 44.6719 20.25C 45.5385 19.6167 46.3219 19.25 47.0219 19.15L 47.0719 19.1C 47.2385 19.0333 47.3885 18.95 47.5219 18.85C 47.6885 18.75 47.8552 18.65 48.0219 18.55C 49.4219 17.35 50.6885 16.0167 51.8219 14.55C 51.8552 14.5167 51.8719 14.4833 51.8719 14.45C 51.8719 14.4167 51.9052 14.3667 51.9719 14.3C 52.4385 13.2333 53.2719 12.45 54.4719 11.95C 55.6719 11.4167 56.8219 11.1833 57.9219 11.25C 59.0219 11.2833 60.0052 11.6 60.8719 12.2C 61.7719 12.8 62.3219 13.6833 62.5219 14.85C 62.3885 15.7833 61.9385 16.9167 61.1719 18.25C 61.3719 18.6833 61.6385 19.2 61.9719 19.8C 62.3052 20.3667 62.3719 20.95 62.1719 21.55C 61.3052 23.3167 60.4219 25.0833 59.5219 26.85C 58.6552 28.6167 57.9385 30.1667 57.3719 31.5C 56.8052 32.8333 56.2885 34.05 55.8219 35.15C 55.3885 36.2167 54.9385 37.3 54.4719 38.4C 52.8719 42.4 51.7052 45.6667 50.9719 48.2C 50.2719 50.7 49.5385 52.7333 48.7719 54.3L 48.7719 54.45L 48.7219 54.45C 48.4219 55.2167 47.8385 55.7667 46.9719 56.1C 46.1385 56.4667 45.2719 56.6 44.3719 56.5C 43.4719 56.4333 42.6885 56.15 42.0219 55.65C 41.3552 55.15 41.0552 54.4333 41.1219 53.5C 41.2219 52.6 41.3552 51.7333 41.5219 50.9C 41.7219 50.0333 42.0219 48.4667 42.4219 46.2C 43.2219 41.6333 44.7552 35.2 47.0219 26.9C 46.0552 26.7667 45.1219 26.4 44.2219 25.8C 43.3552 25.2 42.8385 24.5833 42.6719 23.95Z"/>
<path id="path1_fill" d="M 16.32 4.536L 12.744 16L 11.352 16L 8.448 7.256C 8.42133 7.17067 8.39467 7.08 8.368 6.984C 8.34667 6.888 8.32267 6.78667 8.296 6.68C 8.26933 6.78667 8.24267 6.888 8.216 6.984C 8.18933 7.08 8.16267 7.17067 8.136 7.256L 5.216 16L 3.824 16L 0.248 4.536L 1.536 4.536C 1.67467 4.536 1.78933 4.57067 1.88 4.64C 1.976 4.70933 2.03733 4.79733 2.064 4.904L 4.432 12.872C 4.46933 13.016 4.504 13.1707 4.536 13.336C 4.57333 13.5013 4.608 13.6773 4.64 13.864C 4.67733 13.6773 4.71467 13.5013 4.752 13.336C 4.79467 13.1653 4.84 13.0107 4.888 12.872L 7.584 4.904C 7.616 4.81333 7.67733 4.73067 7.768 4.656C 7.864 4.576 7.97867 4.536 8.112 4.536L 8.56 4.536C 8.69867 4.536 8.81067 4.57067 8.896 4.64C 8.98133 4.70933 9.04533 4.79733 9.088 4.904L 11.776 12.872C 11.824 13.0107 11.8667 13.16 11.904 13.32C 11.9467 13.48 11.9867 13.648 12.024 13.824C 12.0507 13.648 12.08 13.48 12.112 13.32C 12.144 13.16 12.1787 13.0107 12.216 12.872L 14.592 4.904C 14.6187 4.808 14.6773 4.72267 14.768 4.648C 14.864 4.57333 14.9787 4.536 15.112 4.536L 16.32 4.536ZM 21.8162 12.352C 21.1602 12.3733 20.6002 12.4267 20.1362 12.512C 19.6776 12.592 19.3016 12.6987 19.0082 12.832C 18.7202 12.9653 18.5096 13.1227 18.3762 13.304C 18.2482 13.4853 18.1842 13.688 18.1842 13.912C 18.1842 14.1253 18.2189 14.3093 18.2882 14.464C 18.3576 14.6187 18.4509 14.7467 18.5682 14.848C 18.6909 14.944 18.8322 15.016 18.9922 15.064C 19.1576 15.1067 19.3336 15.128 19.5202 15.128C 19.7709 15.128 20.0002 15.104 20.2082 15.056C 20.4162 15.0027 20.6109 14.928 20.7922 14.832C 20.9789 14.736 21.1549 14.6213 21.3202 14.488C 21.4909 14.3547 21.6562 14.2027 21.8162 14.032L 21.8162 12.352ZM 17.2162 9.04C 17.6642 8.608 18.1469 8.28533 18.6642 8.072C 19.1816 7.85867 19.7549 7.752 20.3842 7.752C 20.8376 7.752 21.2402 7.82667 21.5922 7.976C 21.9442 8.12533 22.2402 8.33333 22.4802 8.6C 22.7202 8.86667 22.9016 9.18933 23.0242 9.568C 23.1469 9.94667 23.2082 10.3627 23.2082 10.816L 23.2082 16L 22.5762 16C 22.4376 16 22.3309 15.9787 22.2562 15.936C 22.1816 15.888 22.1229 15.7973 22.0802 15.664L 21.9202 14.896C 21.7069 15.0933 21.4989 15.2693 21.2962 15.424C 21.0936 15.5733 20.8802 15.7013 20.6562 15.808C 20.4322 15.9093 20.1922 15.9867 19.9362 16.04C 19.6856 16.0987 19.4056 16.128 19.0962 16.128C 18.7816 16.128 18.4856 16.0853 18.2082 16C 17.9309 15.9093 17.6882 15.776 17.4802 15.6C 17.2776 15.424 17.1149 15.2027 16.9922 14.936C 16.8749 14.664 16.8162 14.344 16.8162 13.976C 16.8162 13.656 16.9042 13.3493 17.0802 13.056C 17.2562 12.7573 17.5416 12.4933 17.9362 12.264C 18.3309 12.0347 18.8456 11.848 19.4802 11.704C 20.1149 11.5547 20.8936 11.4693 21.8162 11.448L 21.8162 10.816C 21.8162 10.1867 21.6802 9.712 21.4082 9.392C 21.1362 9.06667 20.7389 8.904 20.2162 8.904C 19.8642 8.904 19.5682 8.94933 19.3282 9.04C 19.0936 9.12533 18.8882 9.224 18.7122 9.336C 18.5416 9.44267 18.3922 9.54133 18.2642 9.632C 18.1416 9.71733 18.0189 9.76 17.8962 9.76C 17.8002 9.76 17.7176 9.736 17.6482 9.688C 17.5789 9.63467 17.5202 9.57067 17.4722 9.496L 17.2162 9.04ZM 27.4894 4.216L 27.4894 16L 26.0654 16L 26.0654 4.216L 27.4894 4.216ZM 31.9106 4.216L 31.9106 16L 30.4866 16L 30.4866 4.216L 31.9106 4.216ZM 40.2839 11.064C 40.2839 10.7333 40.2359 10.432 40.1399 10.16C 40.0492 9.88267 39.9132 9.64533 39.7319 9.448C 39.5559 9.24533 39.3399 9.09067 39.0839 8.984C 38.8279 8.872 38.5372 8.816 38.2119 8.816C 37.5292 8.816 36.9879 9.016 36.5879 9.416C 36.1932 9.81067 35.9479 10.36 35.8519 11.064L 40.2839 11.064ZM 41.4359 14.864C 41.2599 15.0773 41.0492 15.264 40.8039 15.424C 40.5585 15.5787 40.2945 15.7067 40.0119 15.808C 39.7345 15.9093 39.4465 15.984 39.1479 16.032C 38.8492 16.0853 38.5532 16.112 38.2599 16.112C 37.6999 16.112 37.1825 16.0187 36.7079 15.832C 36.2385 15.64 35.8305 15.3627 35.4839 15C 35.1425 14.632 34.8759 14.1787 34.6839 13.64C 34.4919 13.1013 34.3959 12.4827 34.3959 11.784C 34.3959 11.2187 34.4812 10.6907 34.6519 10.2C 34.8279 9.70933 35.0785 9.28533 35.4039 8.928C 35.7292 8.56533 36.1265 8.28267 36.5959 8.08C 37.0652 7.872 37.5932 7.768 38.1799 7.768C 38.6652 7.768 39.1132 7.85067 39.5239 8.016C 39.9399 8.176 40.2972 8.41067 40.5959 8.72C 40.8999 9.024 41.1372 9.40267 41.3079 9.856C 41.4785 10.304 41.5639 10.816 41.5639 11.392C 41.5639 11.616 41.5399 11.7653 41.4919 11.84C 41.4439 11.9147 41.3532 11.952 41.2199 11.952L 35.8039 11.952C 35.8199 12.464 35.8892 12.9093 36.0119 13.288C 36.1399 13.6667 36.3159 13.984 36.5399 14.24C 36.7639 14.4907 37.0305 14.68 37.3399 14.808C 37.6492 14.9307 37.9959 14.992 38.3799 14.992C 38.7372 14.992 39.0439 14.952 39.2999 14.872C 39.5612 14.7867 39.7852 14.696 39.9719 14.6C 40.1585 14.504 40.3132 14.416 40.4359 14.336C 40.5639 14.2507 40.6732 14.208 40.7639 14.208C 40.8812 14.208 40.9719 14.2533 41.0359 14.344L 41.4359 14.864ZM 46.3785 16.128C 45.7385 16.128 45.2452 15.9493 44.8985 15.592C 44.5572 15.2347 44.3865 14.72 44.3865 14.048L 44.3865 9.088L 43.4105 9.088C 43.3252 9.088 43.2532 9.064 43.1945 9.016C 43.1358 8.96267 43.1065 8.88267 43.1065 8.776L 43.1065 8.208L 44.4345 8.04L 44.7625 5.536C 44.7785 5.456 44.8132 5.392 44.8665 5.344C 44.9252 5.29067 44.9998 5.264 45.0905 5.264L 45.8105 5.264L 45.8105 8.056L 48.1545 8.056L 48.1545 9.088L 45.8105 9.088L 45.8105 13.952C 45.8105 14.2933 45.8932 14.5467 46.0585 14.712C 46.2238 14.8773 46.4372 14.96 46.6985 14.96C 46.8478 14.96 46.9758 14.9413 47.0825 14.904C 47.1945 14.8613 47.2905 14.816 47.3705 14.768C 47.4505 14.72 47.5172 14.6773 47.5705 14.64C 47.6292 14.5973 47.6798 14.576 47.7225 14.576C 47.7972 14.576 47.8638 14.6213 47.9225 14.712L 48.3385 15.392C 48.0932 15.6213 47.7972 15.8027 47.4505 15.936C 47.1038 16.064 46.7465 16.128 46.3785 16.128Z"/>
</defs>
</svg>
